<?xml version="1.0" encoding="iso-8859-1"?>
<svg xmlns="http://www.w3.org/2000/svg" xmlns:xlink="http://www.w3.org/1999/xlink" viewBox="0 0 50 50" version="1.1">
    <g id="surface1">
        <path style=" " d="M 21.863281 2 C 21.601563 2.011719 21.332031 2.046875 21.0625 2.109375 C 18.929688 2.625 17.597656 4.800781 18.109375 6.933594 L 18.3125 7.777344 C 17.605469 7.523438 16.847656 7.394531 16.0625 7.582031 C 13.929688 8.09375 12.597656 10.269531 13.109375 12.40625 L 16.65625 27.160156 L 16.25 29.761719 L 12.667969 25.457031 C 12.65625 25.445313 12.644531 25.433594 12.632813 25.421875 C 10.953125 23.613281 8.082031 23.625 6.3125 25.378906 C 4.511719 27.066406 4.527344 29.941406 6.292969 31.707031 L 6.210938 31.613281 L 17.800781 46.5 C 19.488281 48.75 22.105469 50 24.902344 50 L 33 50 C 37.945313 50 42 45.945313 42 41 L 42 41.066406 L 42.96875 26.5 L 45.855469 16.066406 C 46.441406 13.949219 45.183594 11.730469 43.066406 11.144531 C 42.160156 10.894531 41.210938 10.992188 40.359375 11.3125 L 40.964844 8.796875 C 41.476563 6.664063 40.144531 4.488281 38.011719 3.976563 C 38.011719 3.972656 38.011719 3.972656 38.011719 3.972656 C 35.875 3.460938 33.699219 4.792969 33.1875 6.929688 L 29.761719 21.1875 L 25.890625 5.066406 C 25.503906 3.464844 24.183594 2.3125 22.648438 2.054688 C 22.390625 2.011719 22.128906 1.992188 21.863281 2 Z M 21.9375 4 C 22.867188 3.96875 23.71875 4.59375 23.945313 5.53125 L 28.789063 25.703125 C 28.898438 26.15625 29.300781 26.472656 29.761719 26.472656 C 30.222656 26.472656 30.625 26.15625 30.734375 25.703125 L 35.128906 7.398438 L 35.128906 7.394531 C 35.390625 6.320313 36.46875 5.660156 37.542969 5.917969 C 38.617188 6.175781 39.277344 7.257813 39.019531 8.328125 L 34.894531 25.511719 C 34.824219 25.800781 34.890625 26.105469 35.070313 26.34375 C 35.25 26.582031 35.527344 26.730469 35.824219 26.742188 L 35.871094 26.746094 C 36.339844 26.765625 36.761719 26.453125 36.878906 26 L 39.964844 14.265625 C 40.242188 13.265625 41.40625 12.761719 42.53125 13.074219 C 43.597656 13.367188 44.222656 14.46875 43.925781 15.53125 L 41.015625 26.0625 C 40.996094 26.128906 40.984375 26.195313 40.980469 26.265625 L 40 40.933594 C 40 40.957031 40 40.976563 40 41 C 40 44.855469 36.855469 48 33 48 L 24.902344 48 C 22.695313 48 20.710938 47.050781 19.402344 45.300781 C 19.398438 45.296875 19.394531 45.289063 19.390625 45.285156 L 7.789063 30.386719 C 7.761719 30.351563 7.734375 30.320313 7.707031 30.292969 C 6.675781 29.261719 6.691406 27.75 7.679688 26.832031 C 7.6875 26.824219 7.699219 26.816406 7.707031 26.808594 C 8.734375 25.777344 10.246094 25.796875 11.164063 26.78125 L 16.128906 32.738281 C 16.382813 33.042969 16.789063 33.171875 17.167969 33.066406 C 17.546875 32.960938 17.828125 32.644531 17.890625 32.253906 L 18.660156 27.269531 C 18.679688 27.144531 18.675781 27.011719 18.644531 26.886719 L 15.054688 11.9375 C 14.796875 10.863281 15.457031 9.785156 16.53125 9.523438 C 17.609375 9.265625 18.6875 9.929688 18.945313 11.003906 C 18.945313 11.007813 18.945313 11.007813 18.949219 11.011719 L 22.5625 25.464844 L 22.5625 25.472656 C 22.695313 26.007813 23.234375 26.335938 23.773438 26.207031 C 24.308594 26.074219 24.636719 25.53125 24.503906 24.996094 L 24.503906 24.988281 L 20.054688 6.46875 C 19.796875 5.394531 20.457031 4.3125 21.53125 4.054688 C 21.667969 4.023438 21.800781 4.003906 21.9375 4 Z "></path>
    </g>
</svg>