<?xml version="1.0" encoding="iso-8859-1"?>
<svg xmlns="http://www.w3.org/2000/svg" viewBox="0 0 80 80">
    <path style="line-height:normal;text-indent:0;text-align:start;text-decoration-line:none;text-decoration-style:solid;text-decoration-color:#000;text-transform:none;block-progression:tb;isolation:auto;mix-blend-mode:normal" d="M 40 4 C 37.052633 4 34.698522 6.1897314 34.203125 9 L 29 9 L 28 9 L 18 9 C 16.35503 9 15 10.35503 15 12 L 15 68 C 15 69.64497 16.35503 71 18 71 L 62 71 C 63.64497 71 65 69.64497 65 68 L 65 12 C 65 10.35503 63.64497 9 62 9 L 52 9 L 51 9 L 45.796875 9 C 45.301478 6.1897314 42.947367 4 40 4 z M 40 6 C 42.220375 6 44 7.7796254 44 10 L 44 11 L 45 11 L 50 11 L 50 14 C 50 14.56503 49.56503 15 49 15 L 31 15 C 30.43497 15 30 14.56503 30 14 L 30 11 L 36 11 L 36 10 C 36 7.7796254 37.779625 6 40 6 z M 40 9 A 1 1 0 0 0 39 10 A 1 1 0 0 0 40 11 A 1 1 0 0 0 41 10 A 1 1 0 0 0 40 9 z M 18 11 L 28 11 L 28 14 C 28 15.64497 29.35503 17 31 17 L 49 17 C 50.64497 17 52 15.64497 52 14 L 52 11 L 62 11 C 62.56503 11 63 11.43497 63 12 L 63 68 C 63 68.56503 62.56503 69 62 69 L 18 69 C 17.43497 69 17 68.56503 17 68 L 17 12 C 17 11.43497 17.43497 11 18 11 z M 22 13 A 1 1 0 0 0 21 14 A 1 1 0 0 0 22 15 A 1 1 0 0 0 23 14 A 1 1 0 0 0 22 13 z M 22 17 A 1 1 0 0 0 21 18 A 1 1 0 0 0 22 19 A 1 1 0 0 0 23 18 A 1 1 0 0 0 22 17 z M 22 21 A 1 1 0 0 0 21 22 A 1 1 0 0 0 22 23 A 1 1 0 0 0 23 22 A 1 1 0 0 0 22 21 z M 22 25 A 1 1 0 0 0 21 26 A 1 1 0 0 0 22 27 A 1 1 0 0 0 23 26 A 1 1 0 0 0 22 25 z M 22 29 A 1 1 0 0 0 21 30 A 1 1 0 0 0 22 31 A 1 1 0 0 0 23 30 A 1 1 0 0 0 22 29 z M 37 32 L 37 36.728516 L 32.935547 34.314453 L 29.871094 39.470703 L 34.126953 42 L 29.871094 44.529297 L 32.935547 49.685547 L 37 47.271484 L 37 52 L 43 52 L 43 47.271484 L 47.064453 49.685547 L 50.128906 44.529297 L 45.873047 42 L 50.128906 39.470703 L 49.619141 38.611328 L 47.064453 34.314453 L 43 36.728516 L 43 32 L 37 32 z M 22 33 A 1 1 0 0 0 21 34 A 1 1 0 0 0 22 35 A 1 1 0 0 0 23 34 A 1 1 0 0 0 22 33 z M 39 34 L 41 34 L 41 40.242188 L 46.367188 37.054688 L 47.388672 38.773438 L 41.958984 42 L 47.388672 45.226562 L 46.367188 46.945312 L 41 43.757812 L 41 50 L 39 50 L 39 43.757812 L 33.632812 46.945312 L 32.611328 45.226562 L 38.041016 42 L 32.611328 38.773438 L 33.632812 37.054688 L 39 40.242188 L 39 34 z M 22 37 A 1 1 0 0 0 21 38 A 1 1 0 0 0 22 39 A 1 1 0 0 0 23 38 A 1 1 0 0 0 22 37 z M 22 41 A 1 1 0 0 0 21 42 A 1 1 0 0 0 22 43 A 1 1 0 0 0 23 42 A 1 1 0 0 0 22 41 z M 22 45 A 1 1 0 0 0 21 46 A 1 1 0 0 0 22 47 A 1 1 0 0 0 23 46 A 1 1 0 0 0 22 45 z M 22 49 A 1 1 0 0 0 21 50 A 1 1 0 0 0 22 51 A 1 1 0 0 0 23 50 A 1 1 0 0 0 22 49 z M 22 53 A 1 1 0 0 0 21 54 A 1 1 0 0 0 22 55 A 1 1 0 0 0 23 54 A 1 1 0 0 0 22 53 z M 22 57 A 1 1 0 0 0 21 58 A 1 1 0 0 0 22 59 A 1 1 0 0 0 23 58 A 1 1 0 0 0 22 57 z M 22 61 A 1 1 0 0 0 21 62 A 1 1 0 0 0 22 63 A 1 1 0 0 0 23 62 A 1 1 0 0 0 22 61 z M 22 65 A 1 1 0 0 0 21 66 A 1 1 0 0 0 22 67 A 1 1 0 0 0 23 66 A 1 1 0 0 0 22 65 z"></path>
</svg>