<svg version="1.1" id="Layer_1" xmlns="http://www.w3.org/2000/svg" xmlns:xlink="http://www.w3.org/1999/xlink" x="0px" y="0px" viewBox="0 0 80 80" style="enable-background:new 0 0 80 80;" xml:space="preserve">
<g>
	<path style="fill:#FFEEA3;" d="M56.005,78.5c-0.144,0-0.291-0.008-0.438-0.027c-0.929-0.116-1.756-0.586-2.33-1.324
		s-0.826-1.655-0.71-2.583l1.637-13.101l-14.309-3.006L18.371,77.575c-0.652,0.599-1.492,0.925-2.37,0.925
		c-0.979,0-1.92-0.414-2.581-1.135c-0.632-0.689-0.958-1.583-0.917-2.518c0.041-0.934,0.442-1.796,1.131-2.427l18.934-19.286
		L20.681,16.112c-0.611-1.835,0.382-3.822,2.212-4.433c0.357-0.118,0.729-0.179,1.104-0.179c1.511,0,2.847,0.961,3.323,2.393
		L34.522,35.5h10.955l7.202-21.606c0.478-1.431,1.814-2.393,3.327-2.393c0.374,0,0.744,0.06,1.102,0.179
		c1.83,0.61,2.823,2.597,2.213,4.427l-9.918,35.171l9.54,4.347c1.706,0.516,2.744,2.108,2.531,3.81l-2,16
		C59.254,77.182,57.763,78.5,56.005,78.5z"></path>
	<path style="fill:#BA9B48;" d="M23.997,12.001c1.296,0,2.441,0.824,2.849,2.051l7.088,21.265L34.162,36h0.721h10.234h0.721
		l0.228-0.684l7.088-21.265c0.409-1.227,1.555-2.051,2.852-2.051c0.32,0,0.638,0.052,0.942,0.153
		c1.569,0.524,2.421,2.226,1.884,3.84l-9.795,34.735l-0.233,0.826l0.781,0.356l9.149,4.169l0.062,0.028l0.065,0.02
		c1.407,0.422,2.296,1.787,2.114,3.245l-2,16C58.789,76.87,57.512,78,56.005,78c-0.123,0-0.249-0.007-0.377-0.024
		c-0.795-0.099-1.504-0.502-1.996-1.134c-0.492-0.632-0.708-1.419-0.608-2.214l1.58-12.645l0.114-0.913l-0.901-0.189l-13.611-2.859
		l-0.494-0.104l-0.377,0.335L18.027,77.211C17.473,77.72,16.753,78,16.001,78c-0.84,0-1.646-0.354-2.212-0.973
		c-0.542-0.591-0.821-1.357-0.786-2.158c0.035-0.8,0.379-1.539,0.97-2.081l0.019-0.018l0.018-0.019l18.703-19.052l0.423-0.431
		l-0.185-0.575L21.154,15.949c-0.523-1.569,0.329-3.271,1.896-3.794C23.358,12.052,23.676,12.001,23.997,12.001L23.997,12.001
		 M23.997,11.001c-0.418,0-0.843,0.066-1.262,0.204c-2.096,0.699-3.229,2.964-2.53,5.06L32,53L13.297,72.052
		c-1.628,1.492-1.738,4.022-0.245,5.651C13.84,78.563,14.919,79,16.001,79c0.966,0,1.935-0.348,2.702-1.052L40,59l13.611,2.859
		l-1.58,12.645c-0.274,2.192,1.28,4.191,3.473,4.465C55.672,78.99,55.84,79,56.005,79c1.988,0,3.711-1.48,3.964-3.504l2-16
		c0.242-1.938-0.949-3.767-2.819-4.327L50,51l9.795-34.735c0.698-2.096-0.435-4.36-2.53-5.06c-0.417-0.138-0.841-0.204-1.259-0.204
		c-1.674,0-3.241,1.056-3.801,2.734L45.117,35H34.883l-7.088-21.265C27.236,12.057,25.671,11.001,23.997,11.001L23.997,11.001z"></path>
</g>
<rect x="2" y="15" style="fill:#546E7A;" width="76" height="2"></rect>
<g>
	<path style="fill:#FFEEA3;" d="M40,32.5c-3.033,0-5.5-2.467-5.5-5.5s2.467-5.5,5.5-5.5s5.5,2.467,5.5,5.5S43.033,32.5,40,32.5z"></path>
	<path style="fill:#BA9B48;" d="M40,22c2.757,0,5,2.243,5,5s-2.243,5-5,5s-5-2.243-5-5S37.243,22,40,22 M40,21c-3.314,0-6,2.686-6,6
		s2.686,6,6,6s6-2.686,6-6S43.314,21,40,21L40,21z"></path>
</g>
<g>
	<path style="fill:#99C4B8;" d="M24.887,61.059l7.681-7.926l-3.135-9.764c3.878-1.204,5.463-6.372,5.845-7.869h9.586
		c0.437,1.558,2.316,7.211,6.75,7.933l-2.212,7.844l7.389,3.367l-3.405,6.657l-13.531-2.842l-8.982,7.992L24.887,61.059z"></path>
	<path style="fill:#5F9994;" d="M44.491,36c0.591,1.919,2.462,6.775,6.497,7.812l-1.95,6.916l-0.233,0.826l0.781,0.356l6.523,2.972
		l-2.992,5.851l-12.91-2.712l-0.494-0.104l-0.377,0.335l-8.459,7.526l-5.269-4.745l7.111-7.338l0.417-0.431l-0.183-0.571
		l-2.895-9.018c3.499-1.418,5.085-5.845,5.604-7.676H44.491 M45.25,35h-0.133H34.883c0,0-1.466,7-6.009,8l0.009,0.294L32,53
		l-7.833,8.083l6.705,6.038L40,59l13.611,2.859l-0.017,0.133l3.88-7.587L50,51l2.253-7.99L52.25,43C47.055,42.705,45.25,35,45.25,35
		L45.25,35z"></path>
</g>
<g>
	<rect x="10.5" y="3.5" style="fill:#F78F8F;" width="5" height="25"></rect>
	<path style="fill:#C74343;" d="M15,4v24h-4V4H15 M16,3h-6v26h6V3L16,3z"></path>
</g>
<g>
	<rect x="5.5" y="3.5" style="fill:#F78F8F;" width="5" height="25"></rect>
	<g>
		<path style="fill:#C74343;" d="M10,4v24H6V4H10 M11,3H5v26h6V3L11,3z"></path>
	</g>
</g>
<g>
	<rect x="69.5" y="3.5" style="fill:#F78F8F;" width="5" height="25"></rect>
	<path style="fill:#C74343;" d="M74,4v24h-4V4H74 M75,3h-6v26h6V3L75,3z"></path>
</g>
<g>
	<rect x="64.5" y="3.5" style="fill:#F78F8F;" width="5" height="25"></rect>
	<g>
		<path style="fill:#C74343;" d="M69,4v24h-4V4H69 M70,3h-6v26h6V3L70,3z"></path>
	</g>
</g>
</svg>