<?xml version="1.0" encoding="UTF-8"?>
<svg xmlns="http://www.w3.org/2000/svg" xmlns:xlink="http://www.w3.org/1999/xlink" viewBox="0 0 48 48" version="1.1">
	<g id="surface1">
		<path style=" fill:#607D8B;" d="M 3 9 L 45 9 L 45 11 L 3 11 Z "></path>
		<path style=" fill:#FFBA57;" d="M 34.742188 32.894531 L 28.378906 29.699219 L 29.566406 22.558594 L 33.421875 11.476563 C 33.683594 10.6875 33.261719 9.839844 32.472656 9.578125 C 31.691406 9.3125 30.839844 9.738281 30.574219 10.523438 L 27 21 C 27 21 27 22 24 22 C 21 22 21 21 21 21 L 17.421875 10.523438 C 17.160156 9.738281 16.3125 9.3125 15.523438 9.578125 C 14.738281 9.839844 14.316406 10.6875 14.578125 11.476563 L 18.488281 22.726563 L 19.859375 31.15625 L 9.644531 41.523438 C 8.832031 42.273438 8.777344 43.535156 9.523438 44.351563 C 9.917969 44.78125 10.457031 45 10.996094 45 C 11.480469 45 11.964844 44.824219 12.347656 44.476563 L 24.003906 34.003906 C 24.007813 34.003906 24.011719 34.003906 24.015625 34.003906 L 32 36 L 31.011719 42.753906 C 30.875 43.847656 31.652344 44.847656 32.75 44.984375 C 32.832031 44.996094 32.917969 45 33 45 C 33.992188 45 34.855469 44.261719 34.980469 43.246094 L 35.984375 35 C 36.097656 34.097656 35.585938 33.234375 34.742188 32.894531 Z "></path>
		<path style=" fill:#FFBA57;" d="M 27 17 C 27 18.65625 25.65625 20 24 20 C 22.34375 20 21 18.65625 21 17 C 21 15.34375 22.34375 14 24 14 C 25.65625 14 27 15.34375 27 17 Z "></path>
		<path style=" fill:#E64A19;" d="M 42 16 C 42 16.554688 41.554688 17 41 17 L 40 17 C 39.445313 17 39 16.554688 39 16 L 39 4 C 39 3.445313 39.445313 3 40 3 L 41 3 C 41.554688 3 42 3.445313 42 4 Z "></path>
		<path style=" fill:#E64A19;" d="M 6 16 C 6 16.554688 6.445313 17 7 17 L 8 17 C 8.554688 17 9 16.554688 9 16 L 9 4 C 9 3.445313 8.554688 3 8 3 L 7 3 C 6.445313 3 6 3.445313 6 4 Z "></path>
		<path style=" fill:#FF754C;" d="M 39 16 C 39 16.554688 38.554688 17 38 17 L 37 17 C 36.445313 17 36 16.554688 36 16 L 36 4 C 36 3.445313 36.445313 3 37 3 L 38 3 C 38.554688 3 39 3.445313 39 4 Z "></path>
		<path style=" fill:#FF754C;" d="M 9 16 C 9 16.554688 9.445313 17 10 17 L 11 17 C 11.554688 17 12 16.554688 12 16 L 12 4 C 12 3.445313 11.554688 3 11 3 L 10 3 C 9.445313 3 9 3.445313 9 4 Z "></path>
		<path style=" fill:#90A4AE;" d="M 29 9 L 34 9 L 34 11 L 29 11 Z "></path>
		<path style=" fill:#90A4AE;" d="M 14 9 L 19 9 L 19 11 L 14 11 Z "></path>
		<path style=" fill:#00ACC1;" d="M 32 36 L 32 31.5 L 28.382813 29.691406 L 29.0625 25.59375 C 27.847656 24.886719 27 23.324219 27 21.5 C 27 21.277344 27.027344 21.066406 27.050781 20.851563 L 27 21 C 27 21 26.996094 21.492188 25.960938 21.785156 C 25.777344 23.617188 24.96875 25 24 25 C 23.03125 25 22.222656 23.617188 22.039063 21.785156 C 21.003906 21.492188 21 21 21 21 L 20.949219 20.851563 C 20.972656 21.066406 21 21.277344 21 21.5 C 21 23.316406 20.160156 24.871094 18.953125 25.582031 L 19.859375 31.152344 L 16.035156 35.035156 L 19.261719 38.261719 L 24.003906 34.003906 C 24.007813 34.003906 24.011719 34.003906 24.015625 34.003906 Z "></path>
		<path style=" fill:#0097A7;" d="M 23.996094 32 L 18.082031 37.082031 L 19.261719 38.261719 L 24.003906 34.003906 L 32 36 L 32 34.4375 Z "></path>
	</g>
</svg>